# xmcd CD database file
#
# Track frame offsets:
#	150
#	20526
#	42453
#	57363
#	76974
#	97497
#	117146
#	135685
#	156831
#	178149
#	195653
#	217662
#	238649
#	256546
#	278342
#
# Disc length: 4009 seconds
#
# Revision: 5
# Processed by: cddbd v1.4PL0 Copyright (c) Steve Scherf et al.
# Submitted via: CDex 1.50beta9
#
DISCID=c90fa70f
DTITLE=Takeuchi Mariya - Impressions
DYEAR=1900
DGENRE=New Age
TTITLE0=kenka wo yamete
TTITLE1=asu no watashi
TTITLE2=marzy-beat de utawasete
TTITLE3=Forever Friends
TTITLE4=koi no arashi
TTITLE5=single again
TTITLE6=mouichido
TTITLE7=manhattan kiss
TTITLE8=genki wo dashite
TTITLE9=honki de only you (Let's Get Married)
TTITLE10=kokuhaku
TTITLE11=jun-ai rhapsody
TTITLE12=Linda
TTITLE13=uchi ni kaerou (my sweet home)
TTITLE14=eki
EXTD=
EXTT0=
EXTT1=
EXTT2=
EXTT3=
EXTT4=
EXTT5=
EXTT6=
EXTT7=
EXTT8=
EXTT9=
EXTT10=
EXTT11=
EXTT12=
EXTT13=
EXTT14=
PLAYORDER=
